<?plantuml 1.2026.1?><svg xmlns="http://www.w3.org/2000/svg" xmlns:xlink="http://www.w3.org/1999/xlink" contentStyleType="text/css" data-diagram-type="CLASS" height="299px" preserveAspectRatio="none" style="width:607px;height:299px;background:#FFFFFF;" version="1.1" viewBox="0 0 607 299" width="607px" zoomAndPan="magnify"><defs/><g><!--cluster C_0009672375814248942351--><g class="cluster" data-qualified-name="C_0009672375814248942351" data-source-line="13" id="ent0008"><path d="M474.5,6 L547.0586,6 A3.75,3.75 0 0 1 549.5586,8.5 L556.5586,29.6094 L597.5,29.6094 A2.5,2.5 0 0 1 600,32.1094 L600,198.36 A2.5,2.5 0 0 1 597.5,200.86 L474.5,200.86 A2.5,2.5 0 0 1 472,198.36 L472,8.5 A2.5,2.5 0 0 1 474.5,6" fill="none" style="stroke:#000000;stroke-width:1.5;"/><line style="stroke:#000000;stroke-width:1.5;" x1="472" x2="556.5586" y1="29.6094" y2="29.6094"/><text fill="#000000" font-family="sans-serif" font-size="14" font-weight="bold" lengthAdjust="spacing" textLength="71.5586" x="476" y="22.5332">Simulation</text></g><path d="M8.5,121.86 L85.7344,121.86 A3.75,3.75 0 0 1 88.2344,124.36 L95.2344,145.4694 L99.7344,145.4694 A2.5,2.5 0 0 1 102.2344,147.9694 L102.2344,174.5788 A2.5,2.5 0 0 1 99.7344,177.0788 L8.5,177.0788 A2.5,2.5 0 0 1 6,174.5788 L6,124.36 A2.5,2.5 0 0 1 8.5,121.86" fill="#F1F1F1" style="stroke:#181818;stroke-width:0.5;"/><line style="stroke:#181818;stroke-width:0.5;" x1="6" x2="95.2344" y1="145.4694" y2="145.4694"/><text fill="#000000" font-family="sans-serif" font-size="14" font-weight="bold" lengthAdjust="spacing" textLength="76.2344" x="10" y="138.3932">Commands</text><path d="M84,236.86 L118.4619,236.86 A3.75,3.75 0 0 1 120.9619,239.36 L127.9619,260.4694 L132.4619,260.4694 A2.5,2.5 0 0 1 134.9619,262.9694 L134.9619,289.5788 A2.5,2.5 0 0 1 132.4619,292.0788 L84,292.0788 A2.5,2.5 0 0 1 81.5,289.5788 L81.5,239.36 A2.5,2.5 0 0 1 84,236.86" fill="#F1F1F1" style="stroke:#181818;stroke-width:0.5;"/><line style="stroke:#181818;stroke-width:0.5;" x1="81.5" x2="127.9619" y1="260.4694" y2="260.4694"/><text fill="#000000" font-family="sans-serif" font-size="14" font-weight="bold" lengthAdjust="spacing" textLength="33.4619" x="85.5" y="253.3932">Cells</text><path d="M255,6.86 L294.8896,6.86 A3.75,3.75 0 0 1 297.3896,9.36 L304.3896,30.4694 L308.8896,30.4694 A2.5,2.5 0 0 1 311.3896,32.9694 L311.3896,59.5788 A2.5,2.5 0 0 1 308.8896,62.0788 L255,62.0788 A2.5,2.5 0 0 1 252.5,59.5788 L252.5,9.36 A2.5,2.5 0 0 1 255,6.86" fill="#F1F1F1" style="stroke:#181818;stroke-width:0.5;"/><line style="stroke:#181818;stroke-width:0.5;" x1="252.5" x2="304.3896" y1="30.4694" y2="30.4694"/><text fill="#000000" font-family="sans-serif" font-size="14" font-weight="bold" lengthAdjust="spacing" textLength="38.8896" x="256.5" y="23.3932">Chain</text><path d="M140,121.86 L169.7793,121.86 A3.75,3.75 0 0 1 172.2793,124.36 L179.2793,145.4694 L183.7793,145.4694 A2.5,2.5 0 0 1 186.2793,147.9694 L186.2793,174.5788 A2.5,2.5 0 0 1 183.7793,177.0788 L140,177.0788 A2.5,2.5 0 0 1 137.5,174.5788 L137.5,124.36 A2.5,2.5 0 0 1 140,121.86" fill="#F1F1F1" style="stroke:#181818;stroke-width:0.5;"/><line style="stroke:#181818;stroke-width:0.5;" x1="137.5" x2="179.2793" y1="145.4694" y2="145.4694"/><text fill="#000000" font-family="sans-serif" font-size="14" font-weight="bold" lengthAdjust="spacing" textLength="28.7793" x="141.5" y="138.3932">Grid</text><path d="M109,6.86 L201.0273,6.86 A3.75,3.75 0 0 1 203.5273,9.36 L210.5273,30.4694 L215.0273,30.4694 A2.5,2.5 0 0 1 217.5273,32.9694 L217.5273,59.5788 A2.5,2.5 0 0 1 215.0273,62.0788 L109,62.0788 A2.5,2.5 0 0 1 106.5,59.5788 L106.5,9.36 A2.5,2.5 0 0 1 109,6.86" fill="#F1F1F1" style="stroke:#181818;stroke-width:0.5;"/><line style="stroke:#181818;stroke-width:0.5;" x1="106.5" x2="210.5273" y1="30.4694" y2="30.4694"/><text fill="#000000" font-family="sans-serif" font-size="14" font-weight="bold" lengthAdjust="spacing" textLength="91.0273" x="110.5" y="23.3932">GridFactories</text><path d="M349,6.86 L430.9238,6.86 A3.75,3.75 0 0 1 433.4238,9.36 L440.4238,30.4694 L444.9238,30.4694 A2.5,2.5 0 0 1 447.4238,32.9694 L447.4238,59.5788 A2.5,2.5 0 0 1 444.9238,62.0788 L349,62.0788 A2.5,2.5 0 0 1 346.5,59.5788 L346.5,9.36 A2.5,2.5 0 0 1 349,6.86" fill="#F1F1F1" style="stroke:#181818;stroke-width:0.5;"/><line style="stroke:#181818;stroke-width:0.5;" x1="346.5" x2="440.4238" y1="30.4694" y2="30.4694"/><text fill="#000000" font-family="sans-serif" font-size="14" font-weight="bold" lengthAdjust="spacing" textLength="80.9238" x="350.5" y="23.3932">Subscribers</text><path d="M499,121.86 L559.1104,121.86 A3.75,3.75 0 0 1 561.6104,124.36 L568.6104,145.4694 L573.1104,145.4694 A2.5,2.5 0 0 1 575.6104,147.9694 L575.6104,174.5788 A2.5,2.5 0 0 1 573.1104,177.0788 L499,177.0788 A2.5,2.5 0 0 1 496.5,174.5788 L496.5,124.36 A2.5,2.5 0 0 1 499,121.86" fill="#F1F1F1" style="stroke:#181818;stroke-width:0.5;"/><line style="stroke:#181818;stroke-width:0.5;" x1="496.5" x2="568.6104" y1="145.4694" y2="145.4694"/><text fill="#000000" font-family="sans-serif" font-size="14" font-weight="bold" lengthAdjust="spacing" textLength="59.1104" x="500.5" y="138.3932">Collision</text><!--link C_0006676956881986764287 to C_0007557528734415602136--><g class="link" data-entity-1="ent0002" data-entity-2="ent0003" data-link-type="dependency" data-source-line="17" id="lnk10"><path codeLine="17" d="M66.8,177.14 C75.41,195.15 84.1248,213.3855 92.7048,231.3555" fill="none" id="C_0006676956881986764287-to-C_0007557528734415602136" style="stroke:#181818;stroke-width:1;stroke-dasharray:7,7;"/><polygon fill="#181818" points="95.29,236.77,95.0218,226.9248,93.1357,232.2579,87.8025,230.3717,95.29,236.77" style="stroke:#181818;stroke-width:1;"/></g><!--link C_0008621096355354352768 to C_0007557528734415602136--><g class="link" data-entity-1="ent0005" data-entity-2="ent0003" data-link-type="dependency" data-source-line="18" id="lnk11"><path codeLine="18" d="M149.2,177.14 C140.59,195.15 131.8752,213.3855 123.2952,231.3555" fill="none" id="C_0008621096355354352768-to-C_0007557528734415602136" style="stroke:#181818;stroke-width:1;stroke-dasharray:7,7;"/><polygon fill="#181818" points="120.71,236.77,128.1975,230.3717,122.8643,232.2579,120.9782,226.9248,120.71,236.77" style="stroke:#181818;stroke-width:1;"/></g><!--link C_0010498869993516481079 to C_0008621096355354352768--><g class="link" data-entity-1="ent0006" data-entity-2="ent0005" data-link-type="dependency" data-source-line="19" id="lnk12"><path codeLine="19" d="M162,62.14 C162,80.15 162,97.8 162,115.77" fill="none" id="C_0010498869993516481079-to-C_0008621096355354352768" style="stroke:#181818;stroke-width:1;stroke-dasharray:7,7;"/><polygon fill="#181818" points="162,121.77,166,112.77,162,116.77,158,112.77,162,121.77" style="stroke:#181818;stroke-width:1;"/></g><!--link C_0009672375814248942351 to C_0010610193366260106408--><g class="link" data-entity-1="ent0008" data-entity-2="ent0009" data-link-type="dependency" data-source-line="20" id="lnk13"><path codeLine="20" d="M536,35.44 C536,37.77 536,83.1 536,115.74" fill="none" id="C_0009672375814248942351-to-C_0010610193366260106408" style="stroke:#181818;stroke-width:1;stroke-dasharray:7,7;"/><polygon fill="#181818" points="536,121.74,540,112.74,536,116.74,532,112.74,536,121.74" style="stroke:#181818;stroke-width:1;"/></g><?plantuml-src XP4zJyCm48Pt_mflNMXq_ZgV5vPAT2aJ4Wj2o4rDQf6FAabXGFtlk22IjZHYyydlStVlUpkVl_aYyAT5KrM-tdJFt7TyyG80Y1QTGIBXA3sr9Ci_sO7j1YIKvOdU6cDD4YcjXK6GGk65VkjZFUY5LYIHW99EexJQI7ckNxPnCxOdb08SAcEKqSf8Y_HNVkVplcbZ6DSIe1qHEkUK4QX9W7NdtCD-tULjN8Vsn8nsOC71SHIGIPPGNL2nsfU-ZyteA6rdfRA6X9QQd9PfOe96_qrPnkwK4802X5CAKUAnql1Zwi0cJv1bjvDviyca_gMkvZHGLrgoISk_r3LtZCsMeGwjxyE6VyH-o_FIryLyNvKt_3sT8CN38SDCpgMT5pfOV0N5PglLu_tm_uqCbHIPoEWB?></g></svg>