<?plantuml 1.2026.1?><svg xmlns="http://www.w3.org/2000/svg" xmlns:xlink="http://www.w3.org/1999/xlink" contentStyleType="text/css" data-diagram-type="CLASS" height="716px" preserveAspectRatio="none" style="width:1823px;height:716px;background:#FFFFFF;" version="1.1" viewBox="0 0 1823 716" width="1823px" zoomAndPan="magnify"><defs/><g><!--class C_0013784868073774302216--><g class="entity" data-qualified-name="C_0013784868073774302216" data-source-line="2" id="ent0002"><rect fill="#F1F1F1" height="48" rx="2.5" ry="2.5" style="stroke:#181818;stroke-width:0.5;" width="215.8721" x="806.5" y="609"/><ellipse cx="821.5" cy="625" fill="#ADD1B2" rx="11" ry="11" style="stroke:#181818;stroke-width:1;"/><path d="M824.2656,620.875 Q824.4219,620.6563 824.6094,620.5469 Q824.7969,620.4375 825.0156,620.4375 Q825.3906,620.4375 825.625,620.7031 Q825.8594,620.9531 825.8594,621.5625 L825.8594,623.0156 Q825.8594,623.625 825.625,623.8906 Q825.3906,624.1563 825.0156,624.1563 Q824.6719,624.1563 824.4688,623.9531 Q824.2656,623.7656 824.1563,623.25 Q824.1094,622.8906 823.9219,622.7031 Q823.5938,622.3281 822.9844,622.1094 Q822.375,621.8906 821.75,621.8906 Q820.9844,621.8906 820.3438,622.2188 Q819.7188,622.5469 819.2188,623.2969 Q818.7344,624.0469 818.7344,625.0781 L818.7344,626.1719 Q818.7344,627.4063 819.625,628.2344 Q820.5156,629.0469 822.1094,629.0469 Q823.0469,629.0469 823.7031,628.7969 Q824.0938,628.6406 824.5156,628.2031 Q824.7813,627.9375 824.9219,627.8594 Q825.0781,627.7813 825.2813,627.7813 Q825.6094,627.7813 825.8594,628.0469 Q826.125,628.2969 826.125,628.6406 Q826.125,628.9844 825.7813,629.3906 Q825.2813,629.9688 824.4844,630.2969 Q823.4063,630.75 822.1094,630.75 Q820.5938,630.75 819.3906,630.125 Q818.4063,629.625 817.7188,628.5625 Q817.0313,627.4844 817.0313,626.2031 L817.0313,625.0469 Q817.0313,623.7188 817.6406,622.5781 Q818.2656,621.4219 819.3594,620.8125 Q820.4531,620.1875 821.6875,620.1875 Q822.4219,620.1875 823.0625,620.3594 Q823.7188,620.5156 824.2656,620.875 Z " fill="#000000"/><text fill="#000000" font-family="sans-serif" font-size="14" lengthAdjust="spacing" textLength="138.5166" x="835.5" y="630.7285">::Engine::Math::Vector</text><rect fill="#FFFFFF" height="17.0938" style="stroke:#181818;stroke-width:1;stroke-dasharray:2,2;" width="43.3555" x="982.0166" y="606"/><text fill="#000000" font-family="sans-serif" font-size="12" font-style="italic" lengthAdjust="spacing" textLength="41.3555" x="983.0166" y="619.457">2,size_t</text><line style="stroke:#181818;stroke-width:0.5;" x1="807.5" x2="1021.3721" y1="641" y2="641"/><line style="stroke:#181818;stroke-width:0.5;" x1="807.5" x2="1021.3721" y1="649" y2="649"/></g><!--class C_0016830943016957620265--><g class="entity" data-qualified-name="C_0016830943016957620265" data-source-line="6" id="ent0003"><rect fill="#F1F1F1" height="48" rx="2.5" ry="2.5" style="stroke:#181818;stroke-width:0.5;" width="207.2061" x="811" y="211"/><ellipse cx="826" cy="227" fill="#ADD1B2" rx="11" ry="11" style="stroke:#181818;stroke-width:1;"/><path d="M828.7656,222.875 Q828.9219,222.6563 829.1094,222.5469 Q829.2969,222.4375 829.5156,222.4375 Q829.8906,222.4375 830.125,222.7031 Q830.3594,222.9531 830.3594,223.5625 L830.3594,225.0156 Q830.3594,225.625 830.125,225.8906 Q829.8906,226.1563 829.5156,226.1563 Q829.1719,226.1563 828.9688,225.9531 Q828.7656,225.7656 828.6563,225.25 Q828.6094,224.8906 828.4219,224.7031 Q828.0938,224.3281 827.4844,224.1094 Q826.875,223.8906 826.25,223.8906 Q825.4844,223.8906 824.8438,224.2188 Q824.2188,224.5469 823.7188,225.2969 Q823.2344,226.0469 823.2344,227.0781 L823.2344,228.1719 Q823.2344,229.4063 824.125,230.2344 Q825.0156,231.0469 826.6094,231.0469 Q827.5469,231.0469 828.2031,230.7969 Q828.5938,230.6406 829.0156,230.2031 Q829.2813,229.9375 829.4219,229.8594 Q829.5781,229.7813 829.7813,229.7813 Q830.1094,229.7813 830.3594,230.0469 Q830.625,230.2969 830.625,230.6406 Q830.625,230.9844 830.2813,231.3906 Q829.7813,231.9688 828.9844,232.2969 Q827.9063,232.75 826.6094,232.75 Q825.0938,232.75 823.8906,232.125 Q822.9063,231.625 822.2188,230.5625 Q821.5313,229.4844 821.5313,228.2031 L821.5313,227.0469 Q821.5313,225.7188 822.1406,224.5781 Q822.7656,223.4219 823.8594,222.8125 Q824.9531,222.1875 826.1875,222.1875 Q826.9219,222.1875 827.5625,222.3594 Q828.2188,222.5156 828.7656,222.875 Z " fill="#000000"/><text fill="#000000" font-family="sans-serif" font-size="14" lengthAdjust="spacing" textLength="138.5166" x="840" y="232.7285">::Engine::Math::Vector</text><rect fill="#FFFFFF" height="17.0938" style="stroke:#181818;stroke-width:1;stroke-dasharray:2,2;" width="34.6895" x="986.5166" y="208"/><text fill="#000000" font-family="sans-serif" font-size="12" font-style="italic" lengthAdjust="spacing" textLength="32.6895" x="987.5166" y="221.457">2,float</text><line style="stroke:#181818;stroke-width:0.5;" x1="812" x2="1017.2061" y1="243" y2="243"/><line style="stroke:#181818;stroke-width:0.5;" x1="812" x2="1017.2061" y1="251" y2="251"/></g><!--class C_0015983514335218059689--><g class="entity" data-qualified-name="C_0015983514335218059689" data-source-line="10" id="ent0004"><rect fill="#F1F1F1" height="153.6563" rx="2.5" ry="2.5" style="stroke:#181818;stroke-width:0.5;" width="562.1289" x="7" y="556"/><ellipse cx="212.6079" cy="572" fill="#ADD1B2" rx="11" ry="11" style="stroke:#181818;stroke-width:1;"/><path d="M215.3735,567.875 Q215.5298,567.6563 215.7173,567.5469 Q215.9048,567.4375 216.1235,567.4375 Q216.4985,567.4375 216.7329,567.7031 Q216.9673,567.9531 216.9673,568.5625 L216.9673,570.0156 Q216.9673,570.625 216.7329,570.8906 Q216.4985,571.1563 216.1235,571.1563 Q215.7798,571.1563 215.5767,570.9531 Q215.3735,570.7656 215.2642,570.25 Q215.2173,569.8906 215.0298,569.7031 Q214.7017,569.3281 214.0923,569.1094 Q213.4829,568.8906 212.8579,568.8906 Q212.0923,568.8906 211.4517,569.2188 Q210.8267,569.5469 210.3267,570.2969 Q209.8423,571.0469 209.8423,572.0781 L209.8423,573.1719 Q209.8423,574.4063 210.7329,575.2344 Q211.6235,576.0469 213.2173,576.0469 Q214.1548,576.0469 214.811,575.7969 Q215.2017,575.6406 215.6235,575.2031 Q215.8892,574.9375 216.0298,574.8594 Q216.186,574.7813 216.3892,574.7813 Q216.7173,574.7813 216.9673,575.0469 Q217.2329,575.2969 217.2329,575.6406 Q217.2329,575.9844 216.8892,576.3906 Q216.3892,576.9688 215.5923,577.2969 Q214.5142,577.75 213.2173,577.75 Q211.7017,577.75 210.4985,577.125 Q209.5142,576.625 208.8267,575.5625 Q208.1392,574.4844 208.1392,573.2031 L208.1392,572.0469 Q208.1392,570.7188 208.7485,569.5781 Q209.3735,568.4219 210.4673,567.8125 Q211.561,567.1875 212.7954,567.1875 Q213.5298,567.1875 214.1704,567.3594 Q214.8267,567.5156 215.3735,567.875 Z " fill="#000000"/><text fill="#000000" font-family="sans-serif" font-size="14" lengthAdjust="spacing" textLength="142.4131" x="233.1079" y="577.7285">::PathManager::PathID</text><line style="stroke:#181818;stroke-width:0.5;" x1="8" x2="568.1289" y1="588" y2="588"/><g data-visibility-modifier="PUBLIC_METHOD"><ellipse cx="18" cy="602.3047" fill="#84BE84" rx="3" ry="3" style="stroke:#038048;stroke-width:1;"/></g><text fill="#000000" font-family="sans-serif" font-size="14" lengthAdjust="spacing" textLength="536.1289" x="27" y="606.5332">PathID(decltype(dataRef) ref, DynamicInfo i, Vec2u s, Vec2u e, Grid::IGraph * g) : void</text><line style="stroke:#181818;stroke-width:0.5;" x1="8" x2="568.1289" y1="613.6094" y2="613.6094"/><g data-visibility-modifier="PUBLIC_FIELD"><ellipse cx="18" cy="627.9141" fill="none" rx="3" ry="3" style="stroke:#038048;stroke-width:1;"/></g><text fill="#000000" font-family="sans-serif" font-size="14" lengthAdjust="spacing" textLength="292.5986" x="27" y="632.1426">dataRef : std::list&lt;std::vector&lt;Vec2u&gt;&gt;::iterator</text><g data-visibility-modifier="PUBLIC_FIELD"><ellipse cx="18" cy="645.5234" fill="none" rx="3" ry="3" style="stroke:#038048;stroke-width:1;"/></g><text fill="#000000" font-family="sans-serif" font-size="14" lengthAdjust="spacing" textLength="74.7236" x="27" y="649.752">end : Vec2u</text><g data-visibility-modifier="PUBLIC_FIELD"><ellipse cx="18" cy="663.1328" fill="none" rx="3" ry="3" style="stroke:#038048;stroke-width:1;"/></g><text fill="#000000" font-family="sans-serif" font-size="14" lengthAdjust="spacing" textLength="133.8408" x="27" y="667.3613">graph : Grid::IGraph *</text><g data-visibility-modifier="PUBLIC_FIELD"><ellipse cx="18" cy="680.7422" fill="none" rx="3" ry="3" style="stroke:#038048;stroke-width:1;"/></g><text fill="#000000" font-family="sans-serif" font-size="14" lengthAdjust="spacing" textLength="112.0479" x="27" y="684.9707">info : DynamicInfo</text><g data-visibility-modifier="PUBLIC_FIELD"><ellipse cx="18" cy="698.3516" fill="none" rx="3" ry="3" style="stroke:#038048;stroke-width:1;"/></g><text fill="#000000" font-family="sans-serif" font-size="14" lengthAdjust="spacing" textLength="78.5928" x="27" y="702.5801">start : Vec2u</text></g><!--class C_0002380464098281245062--><g class="entity" data-qualified-name="C_0002380464098281245062" data-source-line="20" id="ent0005"><rect fill="#F1F1F1" height="312.1406" rx="2.5" ry="2.5" style="stroke:#181818;stroke-width:0.5;" width="330.2676" x="1147" y="195"/><ellipse cx="1228.2363" cy="211" fill="#ADD1B2" rx="11" ry="11" style="stroke:#181818;stroke-width:1;"/><path d="M1231.002,206.875 Q1231.1582,206.6563 1231.3457,206.5469 Q1231.5332,206.4375 1231.752,206.4375 Q1232.127,206.4375 1232.3613,206.7031 Q1232.5957,206.9531 1232.5957,207.5625 L1232.5957,209.0156 Q1232.5957,209.625 1232.3613,209.8906 Q1232.127,210.1563 1231.752,210.1563 Q1231.4082,210.1563 1231.2051,209.9531 Q1231.002,209.7656 1230.8926,209.25 Q1230.8457,208.8906 1230.6582,208.7031 Q1230.3301,208.3281 1229.7207,208.1094 Q1229.1113,207.8906 1228.4863,207.8906 Q1227.7207,207.8906 1227.0801,208.2188 Q1226.4551,208.5469 1225.9551,209.2969 Q1225.4707,210.0469 1225.4707,211.0781 L1225.4707,212.1719 Q1225.4707,213.4063 1226.3613,214.2344 Q1227.252,215.0469 1228.8457,215.0469 Q1229.7832,215.0469 1230.4395,214.7969 Q1230.8301,214.6406 1231.252,214.2031 Q1231.5176,213.9375 1231.6582,213.8594 Q1231.8145,213.7813 1232.0176,213.7813 Q1232.3457,213.7813 1232.5957,214.0469 Q1232.8613,214.2969 1232.8613,214.6406 Q1232.8613,214.9844 1232.5176,215.3906 Q1232.0176,215.9688 1231.2207,216.2969 Q1230.1426,216.75 1228.8457,216.75 Q1227.3301,216.75 1226.127,216.125 Q1225.1426,215.625 1224.4551,214.5625 Q1223.7676,213.4844 1223.7676,212.2031 L1223.7676,211.0469 Q1223.7676,209.7188 1224.377,208.5781 Q1225.002,207.4219 1226.0957,206.8125 Q1227.1895,206.1875 1228.4238,206.1875 Q1229.1582,206.1875 1229.7988,206.3594 Q1230.4551,206.5156 1231.002,206.875 Z " fill="#000000"/><text fill="#000000" font-family="sans-serif" font-size="14" lengthAdjust="spacing" textLength="125.2891" x="1248.7363" y="216.7285">::AnimationManager</text><rect fill="#FFFFFF" height="17.0938" style="stroke:#181818;stroke-width:1;stroke-dasharray:2,2;" width="32.0059" x="1448.2617" y="192"/><text fill="#000000" font-family="sans-serif" font-size="12" font-style="italic" lengthAdjust="spacing" textLength="30.0059" x="1449.2617" y="205.457">Clock</text><line style="stroke:#181818;stroke-width:0.5;" x1="1148" x2="1476.2676" y1="227" y2="227"/><g data-visibility-modifier="PUBLIC_METHOD"><ellipse cx="1158" cy="241.3047" fill="#84BE84" rx="3" ry="3" style="stroke:#038048;stroke-width:1;"/></g><text fill="#000000" font-family="sans-serif" font-size="14" lengthAdjust="spacing" textLength="145.5166" x="1167" y="245.5332">getState() : PlayerState</text><g data-visibility-modifier="PUBLIC_METHOD"><ellipse cx="1158" cy="258.9141" fill="#84BE84" rx="3" ry="3" style="stroke:#038048;stroke-width:1;"/></g><text fill="#000000" font-family="sans-serif" font-size="14" lengthAdjust="spacing" textLength="73.1445" x="1167" y="263.1426">loop() : void</text><g data-visibility-modifier="PUBLIC_METHOD"><ellipse cx="1158" cy="276.5234" fill="#84BE84" rx="3" ry="3" style="stroke:#038048;stroke-width:1;"/></g><text fill="#000000" font-family="sans-serif" font-size="14" lengthAdjust="spacing" textLength="84.8203" x="1167" y="280.752">pause() : void</text><g data-visibility-modifier="PUBLIC_METHOD"><ellipse cx="1158" cy="294.1328" fill="#84BE84" rx="3" ry="3" style="stroke:#038048;stroke-width:1;"/></g><text fill="#000000" font-family="sans-serif" font-size="14" lengthAdjust="spacing" textLength="304.2676" x="1167" y="298.3613">registerOnStateChanged(Subscriber * sub) : void</text><g data-visibility-modifier="PUBLIC_METHOD"><ellipse cx="1158" cy="311.7422" fill="#84BE84" rx="3" ry="3" style="stroke:#038048;stroke-width:1;"/></g><text fill="#000000" font-family="sans-serif" font-size="14" lengthAdjust="spacing" textLength="77.7998" x="1167" y="315.9707">reset() : void</text><g data-visibility-modifier="PUBLIC_METHOD"><ellipse cx="1158" cy="329.3516" fill="#84BE84" rx="3" ry="3" style="stroke:#038048;stroke-width:1;"/></g><text fill="#000000" font-family="sans-serif" font-size="14" lengthAdjust="spacing" textLength="225.668" x="1167" y="333.5801">setIdleFunction(IdleFunc func) : void</text><g data-visibility-modifier="PUBLIC_METHOD"><ellipse cx="1158" cy="346.9609" fill="#84BE84" rx="3" ry="3" style="stroke:#038048;stroke-width:1;"/></g><text fill="#000000" font-family="sans-serif" font-size="14" lengthAdjust="spacing" textLength="234.9922" x="1167" y="351.1895">setPlayFunction(PlayFunc func) : void</text><g data-visibility-modifier="PUBLIC_METHOD"><ellipse cx="1158" cy="364.5703" fill="#84BE84" rx="3" ry="3" style="stroke:#038048;stroke-width:1;"/></g><text fill="#000000" font-family="sans-serif" font-size="14" lengthAdjust="spacing" textLength="73.9033" x="1167" y="368.7988">start() : void</text><line style="stroke:#181818;stroke-width:0.5;" x1="1148" x2="1476.2676" y1="375.875" y2="375.875"/><g data-visibility-modifier="PRIVATE_FIELD"><rect fill="none" height="6" style="stroke:#C82930;stroke-width:1;" width="6" x="1155" y="387.1797"/></g><text fill="#000000" font-family="sans-serif" font-size="14" lengthAdjust="spacing" textLength="87.1582" x="1167" y="394.4082">idle : IdleFunc</text><g data-visibility-modifier="PRIVATE_FIELD"><rect fill="none" height="6" style="stroke:#C82930;stroke-width:1;" width="6" x="1155" y="404.7891"/></g><text fill="#000000" font-family="sans-serif" font-size="14" lengthAdjust="spacing" textLength="137.7305" x="1167" y="412.0176">m_backTrack : double</text><g data-visibility-modifier="PRIVATE_FIELD"><rect fill="none" height="6" style="stroke:#C82930;stroke-width:1;" width="6" x="1155" y="422.3984"/></g><text fill="#000000" font-family="sans-serif" font-size="14" lengthAdjust="spacing" textLength="105.7998" x="1167" y="429.627">m_firstTick : bool</text><g data-visibility-modifier="PRIVATE_FIELD"><rect fill="none" height="6" style="stroke:#C82930;stroke-width:1;" width="6" x="1155" y="440.0078"/></g><text fill="#000000" font-family="sans-serif" font-size="14" lengthAdjust="spacing" textLength="251.3369" x="1167" y="447.2363">m_start : std::chrono::time_point&lt;Clock&gt;</text><g data-visibility-modifier="PRIVATE_FIELD"><rect fill="none" height="6" style="stroke:#C82930;stroke-width:1;" width="6" x="1155" y="457.6172"/></g><text fill="#000000" font-family="sans-serif" font-size="14" lengthAdjust="spacing" textLength="175.123" x="1167" y="464.8457">onStateChanged : Publisher</text><g data-visibility-modifier="PRIVATE_FIELD"><rect fill="none" height="6" style="stroke:#C82930;stroke-width:1;" width="6" x="1155" y="475.2266"/></g><text fill="#000000" font-family="sans-serif" font-size="14" lengthAdjust="spacing" textLength="95.71" x="1167" y="482.4551">play : PlayFunc</text><g data-visibility-modifier="PRIVATE_FIELD"><rect fill="none" height="6" style="stroke:#C82930;stroke-width:1;" width="6" x="1155" y="492.8359"/></g><text fill="#000000" font-family="sans-serif" font-size="14" lengthAdjust="spacing" textLength="114.3926" x="1167" y="500.0645">state : PlayerState</text></g><!--class C_0000961498124090157081--><g class="entity" data-qualified-name="C_0000961498124090157081" data-source-line="39" id="ent0006"><rect fill="#F1F1F1" height="118.4375" rx="2.5" ry="2.5" style="stroke:#181818;stroke-width:0.5;" width="237.4404" x="1579" y="292"/><ellipse cx="1594" cy="308" fill="#EB937F" rx="11" ry="11" style="stroke:#181818;stroke-width:1;"/><path d="M1592.8594,308.7969 L1592.8594,311.2969 L1597.1875,311.2969 L1597.1875,310.375 Q1597.1875,309.7656 1597.4219,309.5 Q1597.6719,309.2344 1598.0469,309.2344 Q1598.4219,309.2344 1598.6563,309.5 Q1598.8906,309.7656 1598.8906,310.375 L1598.8906,313 L1590.8906,313 Q1590.2656,313 1590,312.7656 Q1589.75,312.5313 1589.75,312.1406 Q1589.75,311.7656 1590.0156,311.5313 Q1590.2813,311.2969 1590.8906,311.2969 L1591.1563,311.2969 L1591.1563,304.6406 L1590.8906,304.6406 Q1590.2656,304.6406 1590,304.4063 Q1589.75,304.1719 1589.75,303.7813 Q1589.75,303.4063 1590,303.1719 Q1590.2656,302.9375 1590.8906,302.9375 L1598.5156,302.9375 L1598.5156,305.5313 Q1598.5156,306.1406 1598.2813,306.4063 Q1598.0625,306.6563 1597.6719,306.6563 Q1597.2969,306.6563 1597.0625,306.4063 Q1596.8281,306.1406 1596.8281,305.5313 L1596.8281,304.6406 L1592.8594,304.6406 L1592.8594,307.0938 L1594.3438,307.0938 Q1594.3438,306.4375 1594.4688,306.25 Q1594.7344,305.8438 1595.2031,305.8438 Q1595.5781,305.8438 1595.8125,306.1094 Q1596.0469,306.3594 1596.0469,306.9688 L1596.0469,308.9375 Q1596.0469,309.4844 1595.9219,309.6719 Q1595.6563,310.0625 1595.2031,310.0625 Q1594.7344,310.0625 1594.4688,309.6563 Q1594.3438,309.4688 1594.3438,308.7969 L1592.8594,308.7969 Z " fill="#000000"/><text fill="#000000" font-family="sans-serif" font-size="14" lengthAdjust="spacing" textLength="205.4404" x="1608" y="313.7285">::AnimationManager::PlayerState</text><line style="stroke:#181818;stroke-width:0.5;" x1="1580" x2="1815.4404" y1="324" y2="324"/><text fill="#000000" font-family="sans-serif" font-size="14" lengthAdjust="spacing" textLength="26.4414" x="1585" y="342.5332">INIT</text><text fill="#000000" font-family="sans-serif" font-size="14" lengthAdjust="spacing" textLength="60.6895" x="1585" y="360.1426">PLAYING</text><text fill="#000000" font-family="sans-serif" font-size="14" lengthAdjust="spacing" textLength="57.5723" x="1585" y="377.752">PAUSED</text><text fill="#000000" font-family="sans-serif" font-size="14" lengthAdjust="spacing" textLength="49.0068" x="1585" y="395.3613">ENDED</text><line style="stroke:#181818;stroke-width:0.5;" x1="1580" x2="1815.4404" y1="402.4375" y2="402.4375"/></g><!--class C_0016364042332862071011--><g class="entity" data-qualified-name="C_0016364042332862071011" data-source-line="46" id="ent0007"><rect fill="#F1F1F1" height="48" rx="2.5" ry="2.5" style="stroke:#181818;stroke-width:0.5;" width="342.7305" x="743" y="327"/><ellipse cx="758" cy="343" fill="#ADD1B2" rx="11" ry="11" style="stroke:#181818;stroke-width:1;"/><path d="M760.7656,338.875 Q760.9219,338.6563 761.1094,338.5469 Q761.2969,338.4375 761.5156,338.4375 Q761.8906,338.4375 762.125,338.7031 Q762.3594,338.9531 762.3594,339.5625 L762.3594,341.0156 Q762.3594,341.625 762.125,341.8906 Q761.8906,342.1563 761.5156,342.1563 Q761.1719,342.1563 760.9688,341.9531 Q760.7656,341.7656 760.6563,341.25 Q760.6094,340.8906 760.4219,340.7031 Q760.0938,340.3281 759.4844,340.1094 Q758.875,339.8906 758.25,339.8906 Q757.4844,339.8906 756.8438,340.2188 Q756.2188,340.5469 755.7188,341.2969 Q755.2344,342.0469 755.2344,343.0781 L755.2344,344.1719 Q755.2344,345.4063 756.125,346.2344 Q757.0156,347.0469 758.6094,347.0469 Q759.5469,347.0469 760.2031,346.7969 Q760.5938,346.6406 761.0156,346.2031 Q761.2813,345.9375 761.4219,345.8594 Q761.5781,345.7813 761.7813,345.7813 Q762.1094,345.7813 762.3594,346.0469 Q762.625,346.2969 762.625,346.6406 Q762.625,346.9844 762.2813,347.3906 Q761.7813,347.9688 760.9844,348.2969 Q759.9063,348.75 758.6094,348.75 Q757.0938,348.75 755.8906,348.125 Q754.9063,347.625 754.2188,346.5625 Q753.5313,345.4844 753.5313,344.2031 L753.5313,343.0469 Q753.5313,341.7188 754.1406,340.5781 Q754.7656,339.4219 755.8594,338.8125 Q756.9531,338.1875 758.1875,338.1875 Q758.9219,338.1875 759.5625,338.3594 Q760.2188,338.5156 760.7656,338.875 Z " fill="#000000"/><text fill="#000000" font-family="sans-serif" font-size="14" lengthAdjust="spacing" textLength="125.2891" x="772" y="348.7285">::AnimationManager</text><rect fill="#FFFFFF" height="17.0938" style="stroke:#181818;stroke-width:1;stroke-dasharray:2,2;" width="183.4414" x="905.2891" y="324"/><text fill="#000000" font-family="sans-serif" font-size="12" font-style="italic" lengthAdjust="spacing" textLength="181.4414" x="906.2891" y="337.457">std::chrono::high_resolution_clock</text><line style="stroke:#181818;stroke-width:0.5;" x1="744" x2="1084.7305" y1="359" y2="359"/><line style="stroke:#181818;stroke-width:0.5;" x1="744" x2="1084.7305" y1="367" y2="367"/></g><!--class C_0008275891181392909974--><g class="entity" data-qualified-name="C_0008275891181392909974" data-source-line="50" id="ent0008"><rect fill="#F1F1F1" height="513.8438" rx="2.5" ry="2.5" style="stroke:#181818;stroke-width:0.5;" width="413.5566" x="81" y="7"/><ellipse cx="245.4111" cy="23" fill="#ADD1B2" rx="11" ry="11" style="stroke:#181818;stroke-width:1;"/><path d="M248.1768,18.875 Q248.333,18.6563 248.5205,18.5469 Q248.708,18.4375 248.9268,18.4375 Q249.3018,18.4375 249.5361,18.7031 Q249.7705,18.9531 249.7705,19.5625 L249.7705,21.0156 Q249.7705,21.625 249.5361,21.8906 Q249.3018,22.1563 248.9268,22.1563 Q248.583,22.1563 248.3799,21.9531 Q248.1768,21.7656 248.0674,21.25 Q248.0205,20.8906 247.833,20.7031 Q247.5049,20.3281 246.8955,20.1094 Q246.2861,19.8906 245.6611,19.8906 Q244.8955,19.8906 244.2549,20.2188 Q243.6299,20.5469 243.1299,21.2969 Q242.6455,22.0469 242.6455,23.0781 L242.6455,24.1719 Q242.6455,25.4063 243.5361,26.2344 Q244.4268,27.0469 246.0205,27.0469 Q246.958,27.0469 247.6143,26.7969 Q248.0049,26.6406 248.4268,26.2031 Q248.6924,25.9375 248.833,25.8594 Q248.9893,25.7813 249.1924,25.7813 Q249.5205,25.7813 249.7705,26.0469 Q250.0361,26.2969 250.0361,26.6406 Q250.0361,26.9844 249.6924,27.3906 Q249.1924,27.9688 248.3955,28.2969 Q247.3174,28.75 246.0205,28.75 Q244.5049,28.75 243.3018,28.125 Q242.3174,27.625 241.6299,26.5625 Q240.9424,25.4844 240.9424,24.2031 L240.9424,23.0469 Q240.9424,21.7188 241.5518,20.5781 Q242.1768,19.4219 243.2705,18.8125 Q244.3643,18.1875 245.5986,18.1875 Q246.333,18.1875 246.9736,18.3594 Q247.6299,18.5156 248.1768,18.875 Z " fill="#000000"/><text fill="#000000" font-family="sans-serif" font-size="14" lengthAdjust="spacing" textLength="76.2344" x="265.9111" y="28.7285">::MyWindow</text><line style="stroke:#181818;stroke-width:0.5;" x1="82" x2="493.5566" y1="39" y2="39"/><g data-visibility-modifier="PUBLIC_METHOD"><ellipse cx="92" cy="53.3047" fill="#84BE84" rx="3" ry="3" style="stroke:#038048;stroke-width:1;"/></g><text fill="#000000" font-family="sans-serif" font-size="14" lengthAdjust="spacing" textLength="279.3164" x="101" y="57.5332">MyWindow(int argc, const char ** argv) : void</text><line style="stroke:#181818;stroke-width:1;stroke-dasharray:1,2;" x1="82" x2="493.5566" y1="64.6094" y2="64.6094"/><g data-visibility-modifier="PRIVATE_METHOD"><rect fill="#F24D5C" height="6" style="stroke:#C82930;stroke-width:1;" width="6" x="89" y="75.9141"/></g><text fill="#000000" font-family="sans-serif" font-size="14" lengthAdjust="spacing" textLength="143.9648" x="101" y="83.1426">animationSetup() : void</text><g data-visibility-modifier="PRIVATE_METHOD"><rect fill="#F24D5C" height="6" style="stroke:#C82930;stroke-width:1;" width="6" x="89" y="93.5234"/></g><text fill="#000000" font-family="sans-serif" font-size="14" lengthAdjust="spacing" textLength="77.0205" x="101" y="100.752">clear() : void</text><g data-visibility-modifier="PRIVATE_METHOD"><rect fill="#F24D5C" height="6" style="stroke:#C82930;stroke-width:1;" width="6" x="89" y="111.1328"/></g><text fill="#000000" font-family="sans-serif" font-size="14" lengthAdjust="spacing" textLength="322.1709" x="101" y="118.3613">cursorPosCallback(double xpos, double ypos) : void</text><g data-visibility-modifier="PRIVATE_METHOD"><rect fill="#F24D5C" height="6" style="stroke:#C82930;stroke-width:1;" width="6" x="89" y="128.7422"/></g><text fill="#000000" font-family="sans-serif" font-size="14" lengthAdjust="spacing" textLength="108.165" x="101" y="135.9707">initLogger() : void</text><g data-visibility-modifier="PRIVATE_METHOD"><rect fill="#F24D5C" height="6" style="stroke:#C82930;stroke-width:1;" width="6" x="89" y="146.3516"/></g><text fill="#000000" font-family="sans-serif" font-size="14" lengthAdjust="spacing" textLength="374.2881" x="101" y="153.5801">keyCallback(int key, int scancode, int action, int mode) : void</text><g data-visibility-modifier="PRIVATE_METHOD"><rect fill="#F24D5C" height="6" style="stroke:#C82930;stroke-width:1;" width="6" x="89" y="163.9609"/></g><text fill="#000000" font-family="sans-serif" font-size="14" lengthAdjust="spacing" textLength="364.9639" x="101" y="171.1895">mouseButtonCallback(int button, int action, int mods) : void</text><g data-visibility-modifier="PRIVATE_METHOD"><rect fill="#F24D5C" height="6" style="stroke:#C82930;stroke-width:1;" width="6" x="89" y="181.5703"/></g><text fill="#000000" font-family="sans-serif" font-size="14" lengthAdjust="spacing" textLength="126.0615" x="101" y="188.7988">setupStartup() : void</text><g data-visibility-modifier="PUBLIC_METHOD"><ellipse cx="92" cy="202.1797" fill="#84BE84" rx="3" ry="3" style="stroke:#038048;stroke-width:1;"/></g><text fill="#000000" font-family="sans-serif" font-size="14" lengthAdjust="spacing" textLength="102.7168" x="101" y="206.4082">uiUpdate() : void</text><g data-visibility-modifier="PUBLIC_METHOD"><ellipse cx="92" cy="219.7891" fill="#84BE84" rx="3" ry="3" style="stroke:#038048;stroke-width:1;"/></g><text fill="#000000" font-family="sans-serif" font-size="14" lengthAdjust="spacing" textLength="147.1025" x="101" y="224.0176">update(double dt) : void</text><line style="stroke:#181818;stroke-width:0.5;" x1="82" x2="493.5566" y1="231.0938" y2="231.0938"/><g data-visibility-modifier="PRIVATE_FIELD"><rect fill="none" height="6" style="stroke:#C82930;stroke-width:1;" width="6" x="89" y="242.3984"/></g><text fill="#000000" font-family="sans-serif" font-size="14" lengthAdjust="spacing" textLength="387.5566" x="101" y="249.627">anim : AnimationManager&lt;std::chrono::high_resolution_clock&gt;</text><g data-visibility-modifier="PRIVATE_FIELD"><rect fill="none" height="6" style="stroke:#C82930;stroke-width:1;" width="6" x="89" y="260.0078"/></g><text fill="#000000" font-family="sans-serif" font-size="14" lengthAdjust="spacing" textLength="307.3643" x="101" y="267.2363">animationState : Subscribers::CallbackSubscriber</text><g data-visibility-modifier="PRIVATE_FIELD"><rect fill="none" height="6" style="stroke:#C82930;stroke-width:1;" width="6" x="89" y="277.6172"/></g><text fill="#000000" font-family="sans-serif" font-size="14" lengthAdjust="spacing" textLength="64.5859" x="101" y="284.8457">dirty : bool</text><g data-visibility-modifier="PRIVATE_FIELD"><rect fill="none" height="6" style="stroke:#C82930;stroke-width:1;" width="6" x="89" y="295.2266"/></g><text fill="#000000" font-family="sans-serif" font-size="14" lengthAdjust="spacing" textLength="373.4883" x="101" y="302.4551">displayRefreshSubscriber : Subscribers::CallbackSubscriber</text><g data-visibility-modifier="PRIVATE_FIELD"><rect fill="none" height="6" style="stroke:#C82930;stroke-width:1;" width="6" x="89" y="312.8359"/></g><text fill="#000000" font-family="sans-serif" font-size="14" lengthAdjust="spacing" textLength="66.9375" x="101" y="320.0645">end : Vec2</text><g data-visibility-modifier="PRIVATE_FIELD"><rect fill="none" height="6" style="stroke:#C82930;stroke-width:1;" width="6" x="89" y="330.4453"/></g><text fill="#000000" font-family="sans-serif" font-size="14" lengthAdjust="spacing" textLength="227.999" x="101" y="337.6738">initChain : Chain::GridAllocatorChain</text><g data-visibility-modifier="PRIVATE_FIELD"><rect fill="none" height="6" style="stroke:#C82930;stroke-width:1;" width="6" x="89" y="348.0547"/></g><text fill="#000000" font-family="sans-serif" font-size="14" lengthAdjust="spacing" textLength="232.668" x="101" y="355.2832">m_collisionPoints : std::vector&lt;Vec2&gt;</text><g data-visibility-modifier="PRIVATE_FIELD"><rect fill="none" height="6" style="stroke:#C82930;stroke-width:1;" width="6" x="89" y="365.6641"/></g><text fill="#000000" font-family="sans-serif" font-size="14" lengthAdjust="spacing" textLength="125.2891" x="101" y="372.8926">m_enableTick : bool</text><g data-visibility-modifier="PRIVATE_FIELD"><rect fill="none" height="6" style="stroke:#C82930;stroke-width:1;" width="6" x="89" y="383.2734"/></g><text fill="#000000" font-family="sans-serif" font-size="14" lengthAdjust="spacing" textLength="322.916" x="101" y="390.502">m_tickTimeStamp : std::optional&lt;Clock::time_point&gt;</text><g data-visibility-modifier="PRIVATE_FIELD"><rect fill="none" height="6" style="stroke:#C82930;stroke-width:1;" width="6" x="89" y="400.8828"/></g><text fill="#000000" font-family="sans-serif" font-size="14" lengthAdjust="spacing" textLength="115.9512" x="101" y="408.1113">mouseHolding : int</text><g data-visibility-modifier="PRIVATE_FIELD"><rect fill="none" height="6" style="stroke:#C82930;stroke-width:1;" width="6" x="89" y="418.4922"/></g><text fill="#000000" font-family="sans-serif" font-size="14" lengthAdjust="spacing" textLength="70.0342" x="101" y="425.7207">out : FILE *</text><g data-visibility-modifier="PRIVATE_FIELD"><rect fill="none" height="6" style="stroke:#C82930;stroke-width:1;" width="6" x="89" y="436.1016"/></g><text fill="#000000" font-family="sans-serif" font-size="14" lengthAdjust="spacing" textLength="357.1572" x="101" y="443.3301">pathRefreshSubscriber : Subscribers::CallbackSubscriber</text><g data-visibility-modifier="PRIVATE_FIELD"><rect fill="none" height="6" style="stroke:#C82930;stroke-width:1;" width="6" x="89" y="453.7109"/></g><text fill="#000000" font-family="sans-serif" font-size="14" lengthAdjust="spacing" textLength="81.71" x="101" y="460.9395">refresh : bool</text><g data-visibility-modifier="PRIVATE_FIELD"><rect fill="none" height="6" style="stroke:#C82930;stroke-width:1;" width="6" x="89" y="471.3203"/></g><text fill="#000000" font-family="sans-serif" font-size="14" lengthAdjust="spacing" textLength="70.0273" x="101" y="478.5488">restore : int</text><g data-visibility-modifier="PRIVATE_FIELD"><rect fill="none" height="6" style="stroke:#C82930;stroke-width:1;" width="6" x="89" y="488.9297"/></g><text fill="#000000" font-family="sans-serif" font-size="14" lengthAdjust="spacing" textLength="157.1787" x="101" y="496.1582">simManager : Manager &amp;</text><g data-visibility-modifier="PRIVATE_FIELD"><rect fill="none" height="6" style="stroke:#C82930;stroke-width:1;" width="6" x="89" y="506.5391"/></g><text fill="#000000" font-family="sans-serif" font-size="14" lengthAdjust="spacing" textLength="70.8066" x="101" y="513.7676">start : Vec2</text></g><!--reverse link C_0015983514335218059689 to C_0013784868073774302216--><g class="link" data-entity-1="ent0004" data-entity-2="ent0002" data-link-type="aggregation" data-source-line="81" id="lnk9"><path codeLine="81" d="M581.28,633 C665.43,633 740.7,633 806.31,633" fill="none" id="C_0015983514335218059689-backto-C_0013784868073774302216" style="stroke:#181818;stroke-width:1;"/><polygon fill="none" points="569.28,633,575.28,637,581.28,633,575.28,629,569.28,633" style="stroke:#181818;stroke-width:1;"/><g data-visibility-modifier="PUBLIC_METHOD"><ellipse cx="642.5" cy="624.6758" fill="none" rx="3" ry="3" style="stroke:#038048;stroke-width:1;"/></g><text fill="#000000" font-family="sans-serif" font-size="13" lengthAdjust="spacing" textLength="25.2827" x="649.5" y="629.4951">start</text></g><!--reverse link C_0015983514335218059689 to C_0013784868073774302216--><g class="link" data-entity-1="ent0004" data-entity-2="ent0002" data-link-type="aggregation" data-source-line="82" id="lnk10"><path codeLine="82" d="M581.2517,660.5976 C629.2117,662.3876 666.54,662 713,659 C743.39,657.04 776.2,653.42 806.31,649.49" fill="none" id="C_0015983514335218059689-backto-C_0013784868073774302216-1" style="stroke:#181818;stroke-width:1;"/><polygon fill="none" points="569.26,660.15,575.1066,664.371,581.2517,660.5976,575.405,656.3766,569.26,660.15" style="stroke:#181818;stroke-width:1;"/><g data-visibility-modifier="PUBLIC_METHOD"><ellipse cx="644.5" cy="650.6758" fill="none" rx="3" ry="3" style="stroke:#038048;stroke-width:1;"/></g><text fill="#000000" font-family="sans-serif" font-size="13" lengthAdjust="spacing" textLength="21.6899" x="651.5" y="655.4951">end</text></g><!--reverse link C_0002380464098281245062 to C_0000961498124090157081--><g class="link" data-entity-1="ent0005" data-entity-2="ent0006" data-link-type="aggregation" data-source-line="83" id="lnk11"><path codeLine="83" d="M1489.03,351 C1523.31,351 1546.8,351 1578.98,351" fill="none" id="C_0002380464098281245062-backto-C_0000961498124090157081" style="stroke:#181818;stroke-width:1;"/><polygon fill="none" points="1477.03,351,1483.03,355,1489.03,351,1483.03,347,1477.03,351" style="stroke:#181818;stroke-width:1;"/><g data-visibility-modifier="PRIVATE_METHOD"><rect fill="none" height="6" style="stroke:#C82930;stroke-width:1;" width="6" x="1510" y="339.6758"/></g><text fill="#000000" font-family="sans-serif" font-size="13" lengthAdjust="spacing" textLength="28.1836" x="1520" y="347.4951">state</text></g><!--link C_0000961498124090157081 to C_0002380464098281245062--><g class="link" data-entity-1="ent0006" data-entity-2="ent0005" data-link-type="nested" data-source-line="84" id="lnk12"><path codeLine="84" d="M1578.97,357.08 C1568.84,357.45 1558.74,357.77 1549,358 C1525.74,358.55 1517.1979,358.7688 1493.0879,358.3788" fill="none" id="C_0000961498124090157081-to-C_0002380464098281245062" style="stroke:#181818;stroke-width:1;"/><ellipse cx="1485.089" cy="358.2494" fill="#FFFFFF" rx="8" ry="8" style="stroke:#181818;stroke-width:1;"/><line style="stroke:#181818;stroke-width:1;" x1="1493.0879" x2="1477.09" y1="358.3788" y2="358.12"/><line style="stroke:#181818;stroke-width:1;" x1="1484.9596" x2="1485.2183" y1="366.2483" y2="350.2504"/></g><!--link C_0016364042332862071011 to C_0002380464098281245062--><g class="link" data-entity-1="ent0007" data-entity-2="ent0005" data-link-type="extension" data-source-line="85" id="lnk13"><path codeLine="85" d="M1086.1,351 C1106.27,351 1108.83,351 1128.91,351" fill="none" id="C_0016364042332862071011-to-C_0002380464098281245062" style="stroke:#181818;stroke-width:1;stroke-dasharray:7,7;"/><polygon fill="none" points="1146.91,351,1128.91,345,1128.91,357,1146.91,351" style="stroke:#181818;stroke-width:1;"/></g><!--reverse link C_0008275891181392909974 to C_0016830943016957620265--><g class="link" data-entity-1="ent0008" data-entity-2="ent0003" data-link-type="aggregation" data-source-line="86" id="lnk14"><path codeLine="86" d="M507.1452,225.8944 C541.6752,221.0844 565.33,218.59 599,216 C649.52,212.11 662.39,213.61 713,216 C744.87,217.51 779.49,220.35 810.86,223.39" fill="none" id="C_0008275891181392909974-backto-C_0016830943016957620265" style="stroke:#181818;stroke-width:1;"/><polygon fill="none" points="495.26,227.55,501.7545,230.6839,507.1452,225.8944,500.6508,222.7605,495.26,227.55" style="stroke:#181818;stroke-width:1;"/><g data-visibility-modifier="PRIVATE_METHOD"><rect fill="none" height="6" style="stroke:#C82930;stroke-width:1;" width="6" x="639.5" y="202.6758"/></g><text fill="#000000" font-family="sans-serif" font-size="13" lengthAdjust="spacing" textLength="25.2827" x="649.5" y="210.4951">start</text></g><!--reverse link C_0008275891181392909974 to C_0016830943016957620265--><g class="link" data-entity-1="ent0008" data-entity-2="ent0003" data-link-type="aggregation" data-source-line="87" id="lnk15"><path codeLine="87" d="M507.2071,253.8641 C613.0771,248.9541 725.42,243.73 810.85,239.77" fill="none" id="C_0008275891181392909974-backto-C_0016830943016957620265-1" style="stroke:#181818;stroke-width:1;"/><polygon fill="none" points="495.22,254.42,501.3989,258.1377,507.2071,253.8641,501.0282,250.1463,495.22,254.42" style="stroke:#181818;stroke-width:1;"/><g data-visibility-modifier="PRIVATE_METHOD"><rect fill="none" height="6" style="stroke:#C82930;stroke-width:1;" width="6" x="641.5" y="233.6758"/></g><text fill="#000000" font-family="sans-serif" font-size="13" lengthAdjust="spacing" textLength="21.6899" x="651.5" y="241.4951">end</text></g><!--reverse link C_0008275891181392909974 to C_0016830943016957620265--><g class="link" data-entity-1="ent0008" data-entity-2="ent0003" data-link-type="aggregation" data-source-line="89" id="lnk17"><path codeLine="89" d="M507.0608,280.9601 C576.4408,283.6801 642.21,283.16 713,276 C746.93,272.57 783.61,265.94 816.21,259" fill="none" id="C_0008275891181392909974-backto-C_0016830943016957620265-2" style="stroke:#181818;stroke-width:1;"/><polygon fill="none" points="495.07,280.49,500.9087,284.722,507.0608,280.9601,501.2221,276.7281,495.07,280.49" style="stroke:#181818;stroke-width:1;"/><g data-visibility-modifier="PRIVATE_METHOD"><rect fill="none" height="6" style="stroke:#C82930;stroke-width:1;" width="6" x="602" y="264.6758"/></g><text fill="#000000" font-family="sans-serif" font-size="13" lengthAdjust="spacing" textLength="100.4326" x="612" y="272.4951">m_collisionPoints</text></g><!--reverse link C_0008275891181392909974 to C_0016364042332862071011--><g class="link" data-entity-1="ent0008" data-entity-2="ent0007" data-link-type="aggregation" data-source-line="88" id="lnk16"><path codeLine="88" d="M507.212,295.1188 C541.822,300.0088 565.49,303.33 599,308 C645.67,314.5 696.24,321.46 742.91,327.84" fill="none" id="C_0008275891181392909974-backto-C_0016364042332862071011" style="stroke:#181818;stroke-width:1;"/><polygon fill="none" points="495.33,293.44,500.7114,298.2401,507.212,295.1188,501.8306,290.3187,495.33,293.44" style="stroke:#181818;stroke-width:1;"/><g data-visibility-modifier="PRIVATE_METHOD"><rect fill="none" height="6" style="stroke:#C82930;stroke-width:1;" width="6" x="638" y="296.6758"/></g><text fill="#000000" font-family="sans-serif" font-size="13" lengthAdjust="spacing" textLength="28.1772" x="648" y="304.4951">anim</text></g><?plantuml-src dLPRRo8t57xthx3seSik39eBp4qHKffaKoIIeYQxLP-GcJ63bS4UsPviQRl_lSTpOqWWhV82FbUVw-V9wKPZBR1asLRZb4cQQ2OuIdAY5FuGnpSyOvp6yHtHspZ-1c8XBzoHOd_HbPvzm4JXgvLjEruGJa8_j0Cl22QUxRgEtpWv9yP_ezKA_VZFgpQv8FsR_D2p8_3X-D4qy5tRzQVzcqw8NzsqX1lk22SPbJKnlpxudqQXDtKcdZTrdT2UHduOzVsV48F_OUrbaD8ar_k23bAYoMzqymbBkXdXwpqdEvRC-KPWDiAGcrjYrHxe2DzAbiRn_5QIOei_u-mJZl6pOAa9VDZu0fRIe9KpfI-gqtDTeyhBR1R7J5D9W8E6bAUWNWdGCAkynYykGKDcmedxmQ6XqaJgphHNiqlETiJCHbEuYwjS94-7ljYk5zeJVs97eHiwxcHg-swlRgV4fcuPrG-QQ3em6IzpigUoej4m5w8OT7KO5gHKj4TBca4TgFoLL_fNMy8pcWuUohLA95jJ2MLKvRfleAZkEG1gdkRqIychaH-q1Dx0pv6Q2QjJQucNQgPkWtxRB0OEWMxz8cktMfFawL723_1JKQvpQhWR9fL-P1LtBKHkU6qVgZudMocuY6FDTdHL2CPrKtraYQFqJGt1ArDRAf5LGAXDLUi0b55zKUSVYF9oTwh3i1e7lKEVxSXt9f7feHt1EWHswDGkpacXpVFx-IDQBYx_cD_VekNbruURQtHpVms_RqtOKUvRGAWLz53afT5P9SVZv_WU3DV4zJmtXAqF7DjnZc3XjVWLBDpjVsSy5TyFkOPkC0qZnmaTBt8ZEug2IN-cJuZDJBT-1j0eJ6IMZ70YkD8usH8Ooy-6zzoDodYCBDAc_a1rsPjwAyafaNswb4h8fL1N9C_DD0tgCS9_5WBmf27sG1ni66Tw8JAeQC_H4zrtBaoOG8-mEQY4y4IajAP8DVJrUGVSWuETW7tykTHQy2D7wufrqheNap9vFfWPxwSxBDdN8ctHe67LZ2QpL1-jcAaRqE-Pd7xHcxKuO8UAupQf0nDPy3xgVRUaALDcmm2PmVcs1pp_mzC1d-l-mFuo3fpgFuuDKb_c4AT1yufdC24HEQms1Bmq4A1QTEYz0ZEZHZc1Kht04mta8y07vBehMajHcFH9NgD97rzcJOD_4NdAU0O6m0IqAGqcVPalRk3zi0fuyzwLlQoDkl20W0neUujYkwQHm6bFFrNmrRrDiBTddsDXMUU_Ec9SO_NxpQ5twEoJrXgV1C8Orn2CpcfOrl3yQteMoCRZVsPlcvs4gYxHKzzCTQnDdTvbtjNfRUCJ-O2nMSxtN_rgLn3wU4kv-Jg2H_8xqriCCCupgzpb8_mCWmgQs1xxOzTo0okRqC3Vs1xwk5Xyk-labKb7kSxO6OV_0W00?></g></svg>